<svg width="633" height="124" viewBox="0 0 633 124" fill="none" xmlns="http://www.w3.org/2000/svg">
<path d="M145.906 84H138.094L159.812 27.125H164.812L164.695 32.125L145.906 84ZM161.57 32.125L161.492 27.125H166.453L188.211 84H180.438L161.57 32.125ZM179.5 69.1172H147.508V62.9844H179.5V69.1172ZM228.758 41.7344V83.1016C228.758 86.8255 227.99 90.0026 226.453 92.6328C224.943 95.263 222.833 97.2552 220.125 98.6094C217.443 99.9896 214.344 100.68 210.828 100.68C209.37 100.68 207.651 100.445 205.672 99.9766C203.719 99.5339 201.792 98.7656 199.891 97.6719C198.016 96.6042 196.44 95.1589 195.164 93.3359L198.953 89.0781C200.724 91.2135 202.573 92.6979 204.5 93.5312C206.453 94.3906 208.38 94.8203 210.281 94.8203C213.693 94.8203 216.401 93.8438 218.406 91.8906C220.438 89.9635 221.453 87.151 221.453 83.4531V51.0312L222.117 41.7344H228.758ZM193.016 62.5156C193.016 58.2188 193.693 54.4557 195.047 51.2266C196.401 47.9714 198.328 45.4453 200.828 43.6484C203.328 41.8516 206.297 40.9531 209.734 40.9531C212.391 40.9531 214.708 41.4219 216.688 42.3594C218.693 43.2708 220.385 44.599 221.766 46.3438C223.172 48.0885 224.279 50.1979 225.086 52.6719C225.919 55.1458 226.492 57.9323 226.805 61.0312V64.8203C226.414 68.9089 225.542 72.4505 224.188 75.4453C222.859 78.4141 220.997 80.7188 218.602 82.3594C216.206 83.974 213.224 84.7812 209.656 84.7812C206.271 84.7812 203.328 83.8568 200.828 82.0078C198.354 80.1328 196.427 77.5807 195.047 74.3516C193.693 71.1224 193.016 67.4505 193.016 63.3359V62.5156ZM200.32 63.3359C200.32 66.1484 200.698 68.7135 201.453 71.0312C202.234 73.349 203.445 75.2109 205.086 76.6172C206.727 77.9974 208.849 78.6875 211.453 78.6875C213.849 78.6875 215.815 78.1797 217.352 77.1641C218.888 76.1484 220.125 74.8073 221.062 73.1406C222 71.474 222.729 69.6641 223.25 67.7109V58.2188C222.938 56.7865 222.495 55.4062 221.922 54.0781C221.349 52.724 220.594 51.526 219.656 50.4844C218.719 49.4167 217.573 48.5703 216.219 47.9453C214.891 47.3203 213.328 47.0078 211.531 47.0078C208.901 47.0078 206.753 47.7109 205.086 49.1172C203.445 50.5234 202.234 52.4115 201.453 54.7812C200.698 57.125 200.32 59.7031 200.32 62.5156V63.3359ZM257.234 84.7812C253.302 84.7812 249.878 83.9089 246.961 82.1641C244.07 80.3932 241.818 77.9714 240.203 74.8984C238.615 71.8255 237.82 68.3099 237.82 64.3516V62.6719C237.82 58.0885 238.693 54.1823 240.438 50.9531C242.208 47.6979 244.5 45.224 247.312 43.5312C250.151 41.8125 253.146 40.9531 256.297 40.9531C260.359 40.9531 263.667 41.8646 266.219 43.6875C268.797 45.4844 270.685 47.9453 271.883 51.0703C273.107 54.1693 273.719 57.6849 273.719 61.6172V64.8594H242.156V59H266.414V58.4531C266.31 56.5781 265.932 54.7552 265.281 52.9844C264.63 51.1875 263.589 49.7161 262.156 48.5703C260.724 47.3984 258.771 46.8125 256.297 46.8125C254.109 46.8125 252.169 47.4375 250.477 48.6875C248.81 49.9115 247.495 51.7083 246.531 54.0781C245.594 56.4219 245.125 59.2865 245.125 62.6719V64.3516C245.125 67.0339 245.62 69.4818 246.609 71.6953C247.599 73.8828 249.031 75.6406 250.906 76.9688C252.781 78.2708 255.021 78.9219 257.625 78.9219C260.177 78.9219 262.339 78.401 264.109 77.3594C265.88 76.3177 267.43 74.9245 268.758 73.1797L273.172 76.6172C271.818 78.7005 269.865 80.5885 267.312 82.2812C264.786 83.9479 261.427 84.7812 257.234 84.7812ZM289.461 84H282.156V41.7344H289.07L289.461 50.7578V84ZM284.695 61.1094C284.747 57.2552 285.49 53.8177 286.922 50.7969C288.354 47.75 290.346 45.3542 292.898 43.6094C295.477 41.8385 298.471 40.9531 301.883 40.9531C304.669 40.9531 307.065 41.474 309.07 42.5156C311.102 43.5312 312.664 45.1589 313.758 47.3984C314.878 49.638 315.438 52.6068 315.438 56.3047V84H308.133V56.2266C308.133 54.013 307.807 52.2292 307.156 50.875C306.531 49.5208 305.594 48.5443 304.344 47.9453C303.094 47.3203 301.557 47.0078 299.734 47.0078C297.938 47.0078 296.31 47.3854 294.852 48.1406C293.393 48.8958 292.13 49.9375 291.062 51.2656C289.995 52.5938 289.174 54.1172 288.602 55.8359C288.029 57.5286 287.742 59.3255 287.742 61.2266L284.695 61.1094ZM344.148 47.2422H321.258V41.7344H344.148V47.2422ZM336.258 31.4609V73.5312C336.258 74.9896 336.479 76.0833 336.922 76.8125C337.365 77.5417 337.938 78.0234 338.641 78.2578C339.344 78.4922 340.099 78.6094 340.906 78.6094C341.505 78.6094 342.13 78.5573 342.781 78.4531C343.458 78.349 343.953 78.2578 344.266 78.1797L344.305 84C343.732 84.1823 342.977 84.3516 342.039 84.5078C341.128 84.6901 340.021 84.7812 338.719 84.7812C336.948 84.7812 335.32 84.4297 333.836 83.7266C332.352 83.0234 331.167 81.8516 330.281 80.2109C329.396 78.5443 328.953 76.3047 328.953 73.4922V31.4609H336.258ZM367.625 62.75H348.523V56.8516H367.625V62.75ZM406.062 69.625C406.062 67.8281 405.685 66.3047 404.93 65.0547C404.174 63.8047 402.82 62.6719 400.867 61.6562C398.914 60.6406 396.141 59.612 392.547 58.5703C389.734 57.763 387.195 56.8516 384.93 55.8359C382.69 54.7943 380.763 53.6094 379.148 52.2812C377.534 50.9531 376.297 49.4297 375.438 47.7109C374.578 45.9922 374.148 44.026 374.148 41.8125C374.148 38.8438 374.943 36.2005 376.531 33.8828C378.146 31.5391 380.398 29.7031 383.289 28.375C386.18 27.0208 389.565 26.3438 393.445 26.3438C397.742 26.3438 401.388 27.1641 404.383 28.8047C407.378 30.4193 409.656 32.5417 411.219 35.1719C412.781 37.776 413.562 40.5625 413.562 43.5312H405.945C405.945 41.3958 405.49 39.4948 404.578 37.8281C403.693 36.1615 402.326 34.8594 400.477 33.9219C398.628 32.9583 396.284 32.4766 393.445 32.4766C390.789 32.4766 388.589 32.8802 386.844 33.6875C385.125 34.4948 383.849 35.5885 383.016 36.9688C382.182 38.349 381.766 39.9245 381.766 41.6953C381.766 43.2839 382.221 44.7031 383.133 45.9531C384.044 47.1771 385.477 48.2839 387.43 49.2734C389.383 50.263 391.909 51.2005 395.008 52.0859C399.305 53.2839 402.833 54.6771 405.594 56.2656C408.354 57.8542 410.385 59.7292 411.688 61.8906C413.016 64.0521 413.68 66.6042 413.68 69.5469C413.68 72.6198 412.859 75.3021 411.219 77.5938C409.578 79.8854 407.273 81.6562 404.305 82.9062C401.336 84.1562 397.846 84.7812 393.836 84.7812C391.206 84.7812 388.615 84.4167 386.062 83.6875C383.536 82.9583 381.232 81.8646 379.148 80.4062C377.091 78.9479 375.438 77.151 374.188 75.0156C372.964 72.8542 372.352 70.3542 372.352 67.5156H379.93C379.93 69.4688 380.307 71.1484 381.062 72.5547C381.818 73.9609 382.846 75.1198 384.148 76.0312C385.451 76.9427 386.935 77.6198 388.602 78.0625C390.268 78.4792 392.013 78.6875 393.836 78.6875C396.466 78.6875 398.68 78.3229 400.477 77.5938C402.299 76.8385 403.68 75.7839 404.617 74.4297C405.581 73.0755 406.062 71.474 406.062 69.625ZM429.461 100.25H422.156V41.7344H428.797L429.461 49.8594V100.25ZM457.898 63.3359C457.898 67.4505 457.26 71.1224 455.984 74.3516C454.708 77.5807 452.846 80.1328 450.398 82.0078C447.977 83.8568 445.021 84.7812 441.531 84.7812C437.911 84.7812 434.878 84 432.43 82.4375C429.982 80.875 428.068 78.6615 426.688 75.7969C425.307 72.9062 424.409 69.4948 423.992 65.5625V61.0312C424.409 56.8906 425.307 53.3229 426.688 50.3281C428.094 47.3333 430.008 45.0286 432.43 43.4141C434.878 41.7734 437.872 40.9531 441.414 40.9531C444.956 40.9531 447.951 41.8516 450.398 43.6484C452.846 45.4453 454.708 47.9714 455.984 51.2266C457.26 54.4557 457.898 58.2188 457.898 62.5156V63.3359ZM450.594 62.5156C450.594 59.7031 450.19 57.125 449.383 54.7812C448.602 52.4115 447.365 50.5234 445.672 49.1172C444.005 47.7109 441.857 47.0078 439.227 47.0078C437.43 47.0078 435.867 47.3203 434.539 47.9453C433.211 48.5703 432.078 49.4167 431.141 50.4844C430.203 51.526 429.435 52.724 428.836 54.0781C428.263 55.4062 427.833 56.7865 427.547 58.2188V68.4141C428.068 70.237 428.784 71.9557 429.695 73.5703C430.633 75.1589 431.87 76.4479 433.406 77.4375C434.969 78.4271 436.935 78.9219 439.305 78.9219C441.909 78.9219 444.044 78.2057 445.711 76.7734C447.378 75.3411 448.602 73.4531 449.383 71.1094C450.19 68.7396 450.594 66.1484 450.594 63.3359V62.5156ZM492 55.0156C492 52.4896 491.245 50.4844 489.734 49C488.25 47.4896 486.049 46.7344 483.133 46.7344C481.336 46.7344 479.747 47.0469 478.367 47.6719C477.013 48.2969 475.958 49.1172 475.203 50.1328C474.448 51.1484 474.07 52.2552 474.07 53.4531H466.766C466.766 51.4219 467.456 49.4557 468.836 47.5547C470.216 45.6276 472.156 44.0521 474.656 42.8281C477.182 41.5781 480.151 40.9531 483.562 40.9531C486.635 40.9531 489.357 41.474 491.727 42.5156C494.096 43.5573 495.945 45.1328 497.273 47.2422C498.628 49.3255 499.305 51.9427 499.305 55.0938V74.7812C499.305 76.1875 499.422 77.6849 499.656 79.2734C499.917 80.862 500.294 82.2292 500.789 83.375V84H493.172C492.807 83.1667 492.521 82.0599 492.312 80.6797C492.104 79.2734 492 77.9714 492 76.7734V55.0156ZM493.328 63.4531H486.062C481.948 63.4531 478.771 64.1042 476.531 65.4062C474.292 66.7083 473.172 68.6615 473.172 71.2656C473.172 73.2969 473.849 75.0156 475.203 76.4219C476.583 77.8281 478.589 78.5312 481.219 78.5312C483.432 78.5312 485.385 78.0625 487.078 77.125C488.771 76.1875 490.112 75.0286 491.102 73.6484C492.091 72.2682 492.625 70.9401 492.703 69.6641L495.828 73.1406C495.646 74.2344 495.151 75.4453 494.344 76.7734C493.536 78.1016 492.456 79.3776 491.102 80.6016C489.773 81.7995 488.185 82.8021 486.336 83.6094C484.513 84.3906 482.456 84.7812 480.164 84.7812C477.299 84.7812 474.786 84.2344 472.625 83.1406C470.49 82.0208 468.823 80.5104 467.625 78.6094C466.453 76.7083 465.867 74.599 465.867 72.2812C465.867 67.724 467.586 64.2734 471.023 61.9297C474.461 59.5599 479.083 58.375 484.891 58.375H493.25L493.328 63.4531ZM527.625 78.9219C529.344 78.9219 530.932 78.5703 532.391 77.8672C533.849 77.138 535.047 76.1484 535.984 74.8984C536.922 73.6484 537.456 72.2292 537.586 70.6406H544.5C544.37 73.1406 543.523 75.4714 541.961 77.6328C540.398 79.7682 538.367 81.5 535.867 82.8281C533.367 84.1302 530.62 84.7812 527.625 84.7812C523.38 84.7812 519.865 83.8177 517.078 81.8906C514.292 79.9375 512.208 77.3594 510.828 74.1562C509.474 70.9531 508.797 67.4635 508.797 63.6875V62.0469C508.797 58.2448 509.487 54.7552 510.867 51.5781C512.247 48.375 514.331 45.8099 517.117 43.8828C519.904 41.9297 523.406 40.9531 527.625 40.9531C530.932 40.9531 533.823 41.6302 536.297 42.9844C538.797 44.3125 540.75 46.1354 542.156 48.4531C543.589 50.7448 544.37 53.349 544.5 56.2656H537.586C537.456 54.5208 536.961 52.9323 536.102 51.5C535.268 50.0677 534.122 48.9349 532.664 48.1016C531.232 47.2422 529.552 46.8125 527.625 46.8125C524.682 46.8125 522.365 47.5677 520.672 49.0781C519.005 50.5885 517.82 52.5156 517.117 54.8594C516.44 57.1771 516.102 59.5729 516.102 62.0469V63.6875C516.102 66.1615 516.44 68.5703 517.117 70.9141C517.794 73.2578 518.966 75.1849 520.633 76.6953C522.326 78.1797 524.656 78.9219 527.625 78.9219ZM570.203 84.7812C566.271 84.7812 562.846 83.9089 559.93 82.1641C557.039 80.3932 554.786 77.9714 553.172 74.8984C551.583 71.8255 550.789 68.3099 550.789 64.3516V62.6719C550.789 58.0885 551.661 54.1823 553.406 50.9531C555.177 47.6979 557.469 45.224 560.281 43.5312C563.12 41.8125 566.115 40.9531 569.266 40.9531C573.328 40.9531 576.635 41.8646 579.188 43.6875C581.766 45.4844 583.654 47.9453 584.852 51.0703C586.076 54.1693 586.688 57.6849 586.688 61.6172V64.8594H555.125V59H579.383V58.4531C579.279 56.5781 578.901 54.7552 578.25 52.9844C577.599 51.1875 576.557 49.7161 575.125 48.5703C573.693 47.3984 571.74 46.8125 569.266 46.8125C567.078 46.8125 565.138 47.4375 563.445 48.6875C561.779 49.9115 560.464 51.7083 559.5 54.0781C558.562 56.4219 558.094 59.2865 558.094 62.6719V64.3516C558.094 67.0339 558.589 69.4818 559.578 71.6953C560.568 73.8828 562 75.6406 563.875 76.9688C565.75 78.2708 567.99 78.9219 570.594 78.9219C573.146 78.9219 575.307 78.401 577.078 77.3594C578.849 76.3177 580.398 74.9245 581.727 73.1797L586.141 76.6172C584.786 78.7005 582.833 80.5885 580.281 82.2812C577.755 83.9479 574.396 84.7812 570.203 84.7812Z" fill="white"/>
<path d="M60.44 28.32L42.92 82.08V82C42.6 82.8 42.1467 83.4667 41.56 84C41.0267 84.48 40.36 84.72 39.56 84.72C39.1333 84.72 38.7067 84.6667 38.28 84.56C37.9067 84.5067 37.5067 84.4267 37.08 84.32H37.16C34.12 83.36 33 81.6533 33.8 79.2L52.04 23.76C52.3067 22.9067 52.76 22.1867 53.4 21.6C54.0933 21.0133 54.8933 20.6667 55.8 20.56C56.7067 20.4 57.5867 20.2933 58.44 20.24C59.2933 20.1333 59.96 20.08 60.44 20.08C60.92 20.08 61.5867 20.1333 62.44 20.24C63.2933 20.2933 64.1733 20.3733 65.08 20.48C65.8267 20.5867 66.5467 20.9867 67.24 21.68C67.9867 22.3733 68.5467 23.0667 68.92 23.76C71.9067 32.9333 74.92 42.1867 77.96 51.52C81.0533 60.8 84.0933 70.0267 87.08 79.2C87.8267 81.6533 86.7067 83.36 83.72 84.32C83.2933 84.4267 82.8933 84.5067 82.52 84.56C82.2 84.6667 81.8267 84.72 81.4 84.72C80.6533 84.72 79.96 84.48 79.32 84C78.7333 83.4667 78.3067 82.8 78.04 82V82.08L60.44 28.32ZM66.44 64.8C66.44 66.5067 65.8267 67.9733 64.6 69.2C63.4267 70.3733 61.9867 70.96 60.28 70.96C58.5733 70.96 57.1333 70.3733 55.96 69.2C54.7867 67.9733 54.2 66.5067 54.2 64.8C54.2 63.0933 54.7867 61.6533 55.96 60.48C57.1333 59.2533 58.5733 58.64 60.28 58.64C61.9867 58.64 63.4267 59.2533 64.6 60.48C65.8267 61.6533 66.44 63.0933 66.44 64.8Z" fill="white"/>
<path d="M31.125 11.6719C29.9062 12.4219 28.7656 13.2656 27.7031 14.2031C26.6719 15.1406 25.7812 16.1719 25.0312 17.2969C24.2812 18.4219 23.6875 19.6406 23.25 20.9531C22.8125 22.2344 22.5938 23.6094 22.5938 25.0781C22.5938 26.2656 22.6406 27.3125 22.7344 28.2188C22.8281 29.0938 22.9375 29.9219 23.0625 30.7031C23.2188 31.4844 23.375 32.2188 23.5312 32.9062C23.7188 33.5938 23.875 34.3281 24 35.1094C24.1562 35.8906 24.2812 36.7344 24.375 37.6406C24.4688 38.5469 24.5156 39.5781 24.5156 40.7344C24.5156 42.0469 24.3125 43.3438 23.9062 44.625C23.5 45.875 22.9062 47.0625 22.125 48.1875C21.375 49.2812 20.4688 50.2812 19.4062 51.1875C18.3438 52.0938 17.1562 52.8281 15.8438 53.3906C18.9688 53.9531 21.1875 55.3281 22.5 57.5156C23.8438 59.7031 24.5156 62.5156 24.5156 65.9531C24.5156 67.7656 24.4062 69.3594 24.1875 70.7344C24 72.0781 23.7812 73.3594 23.5312 74.5781C23.3125 75.7656 23.0938 76.9688 22.875 78.1875C22.6875 79.375 22.5938 80.7188 22.5938 82.2188C22.5938 83.8125 22.7031 85.2188 22.9219 86.4375C23.1406 87.6562 23.5469 88.7812 24.1406 89.8125C24.7344 90.8438 25.5469 91.8125 26.5781 92.7188C27.6406 93.625 29 94.5312 30.6562 95.4375L29.3438 98.7656C26.625 97.7031 24.2656 96.5938 22.2656 95.4375C20.2656 94.3125 18.6094 93.0469 17.2969 91.6406C15.9844 90.2344 15 88.6406 14.3438 86.8594C13.7188 85.1094 13.4062 83.1094 13.4062 80.8594C13.4062 79.0781 13.5 77.5625 13.6875 76.3125C13.9062 75.0625 14.125 73.8594 14.3438 72.7031C14.5938 71.5469 14.8125 70.3125 15 69C15.2188 67.6875 15.3281 66.0938 15.3281 64.2188C15.3281 61.6875 14.7188 59.8125 13.5 58.5938C12.3125 57.375 10.6094 56.7656 8.39062 56.7656H7.40625C7.21875 56.7656 7.04688 56.7812 6.89062 56.8125C6.73438 56.8125 6.54688 56.8438 6.32812 56.9062C6.14062 56.9375 5.8125 56.9844 5.34375 57.0469L4.54688 54.0938C8.14062 53.125 10.8281 51.7188 12.6094 49.875C14.4219 48 15.3281 45.8906 15.3281 43.5469C15.3281 42.3281 15.2812 41.2656 15.1875 40.3594C15.0938 39.4219 14.9688 38.5781 14.8125 37.8281C14.6875 37.0781 14.5312 36.375 14.3438 35.7188C14.1875 35.0312 14.0312 34.3125 13.875 33.5625C13.75 32.7812 13.6406 31.9375 13.5469 31.0312C13.4531 30.0938 13.4062 29 13.4062 27.75C13.4062 25.6562 13.7969 23.7031 14.5781 21.8906C15.3594 20.0469 16.4688 18.3594 17.9062 16.8281C19.3438 15.2656 21.0469 13.8437 23.0156 12.5625C25.0156 11.25 27.2344 10.0625 29.6719 9L31.125 11.6719Z" fill="#42ABD1"/>
<path d="M116.266 53.7188C112.609 54.6875 109.891 56.0938 108.109 57.9375C106.328 59.75 105.438 61.8438 105.438 64.2188C105.438 65.4375 105.484 66.5 105.578 67.4062C105.672 68.3125 105.781 69.1562 105.906 69.9375C106.062 70.6875 106.219 71.4062 106.375 72.0938C106.531 72.75 106.672 73.4531 106.797 74.2031C106.953 74.9531 107.078 75.7969 107.172 76.7344C107.266 77.6406 107.312 78.7188 107.312 79.9688C107.312 82.0938 106.922 84.0625 106.141 85.875C105.359 87.6875 104.25 89.375 102.812 90.9375C101.406 92.5 99.7031 93.9219 97.7031 95.2031C95.7031 96.5156 93.5 97.7031 91.0938 98.7656L89.5938 96.0469C90.8125 95.2969 91.9375 94.4531 92.9688 93.5156C94.0312 92.5781 94.9375 91.5469 95.6875 90.4219C96.4375 89.2969 97.0312 88.0781 97.4688 86.7656C97.9062 85.4844 98.125 84.1094 98.125 82.6406C98.125 80.8906 98.0156 79.4219 97.7969 78.2344C97.6094 77.0469 97.3906 75.9219 97.1406 74.8594C96.9219 73.7656 96.7188 72.625 96.5312 71.4375C96.3438 70.2188 96.25 68.7188 96.25 66.9375C96.25 65.6562 96.4531 64.3906 96.8594 63.1406C97.2656 61.8906 97.8438 60.7188 98.5938 59.625C99.3438 58.5 100.25 57.5 101.312 56.625C102.406 55.7188 103.625 54.9844 104.969 54.4219C101.812 53.8281 99.5625 52.4375 98.2188 50.25C96.9062 48.0625 96.25 45.2344 96.25 41.7656C96.25 39.9531 96.3438 38.375 96.5312 37.0312C96.7188 35.6562 96.9219 34.375 97.1406 33.1875C97.3906 31.9688 97.6094 30.7656 97.7969 29.5781C98.0156 28.3906 98.125 27.0469 98.125 25.5469C98.125 23.9531 98.0156 22.5313 97.7969 21.2812C97.5781 20.0312 97.1562 18.9062 96.5312 17.9062C95.9375 16.875 95.1094 15.9219 94.0469 15.0469C93.0156 14.1406 91.6875 13.2344 90.0625 12.3281L91.375 9C94.0938 10.0312 96.4531 11.125 98.4531 12.2812C100.453 13.4375 102.109 14.7188 103.422 16.125C104.734 17.5312 105.703 19.1094 106.328 20.8594C106.984 22.6094 107.312 24.6094 107.312 26.8594C107.312 28.6406 107.203 30.1562 106.984 31.4062C106.797 32.6562 106.578 33.875 106.328 35.0625C106.109 36.2188 105.906 37.4531 105.719 38.7656C105.531 40.0469 105.438 41.625 105.438 43.5C105.438 46.0312 106.031 47.9062 107.219 49.125C108.438 50.3438 110.172 50.9531 112.422 50.9531H113.828C113.984 50.9531 114.172 50.9375 114.391 50.9062L115.469 50.6719L116.266 53.7188Z" fill="#9F70FD"/>
</svg>
