<svg width="547" height="106" viewBox="0 0 547 106" fill="none" xmlns="http://www.w3.org/2000/svg">
<ellipse cx="47.5" cy="53.5" rx="47.5" ry="49.5" fill="#F1F1F1"/>
<mask id="path-2-inside-1_0_1" fill="white">
<path d="M83.6098 69.8946C85.6425 63.97 86.3936 57.6234 85.8059 51.3385C85.2183 45.0535 83.3074 38.9961 80.2189 33.6279C77.1304 28.2596 72.9457 23.7222 67.9838 20.3614C63.022 17.0005 57.4138 14.905 51.5868 14.2345L50.6808 23.3829C55.216 23.9048 59.5808 25.5357 63.4426 28.1515C67.3045 30.7672 70.5614 34.2987 72.9652 38.4769C75.369 42.655 76.8563 47.3695 77.3136 52.2611C77.771 57.1527 77.1864 62.0922 75.6044 66.7034L83.6098 69.8946Z"/>
</mask>
<path d="M83.6098 69.8946C85.6425 63.97 86.3936 57.6234 85.8059 51.3385C85.2183 45.0535 83.3074 38.9961 80.2189 33.6279C77.1304 28.2596 72.9457 23.7222 67.9838 20.3614C63.022 17.0005 57.4138 14.905 51.5868 14.2345L50.6808 23.3829C55.216 23.9048 59.5808 25.5357 63.4426 28.1515C67.3045 30.7672 70.5614 34.2987 72.9652 38.4769C75.369 42.655 76.8563 47.3695 77.3136 52.2611C77.771 57.1527 77.1864 62.0922 75.6044 66.7034L83.6098 69.8946Z" fill="#3B9EBF" stroke="#1A66C0" stroke-width="2" mask="url(#path-2-inside-1_0_1)"/>
<mask id="path-3-inside-2_0_1" fill="white">
<path d="M44.9404 14.0918C38.7441 14.5369 32.7397 16.5909 27.4394 20.0788C22.139 23.5667 17.7 28.3849 14.5011 34.1223C11.3022 39.8597 9.43826 46.3461 9.06836 53.0281C8.69846 59.71 9.83356 66.3893 12.3768 72.4961L20.1635 68.7281C18.1841 63.9752 17.3006 58.7767 17.5885 53.5761C17.8764 48.3755 19.3271 43.3271 21.8168 38.8616C24.3066 34.3962 27.7614 30.6462 31.8867 27.9316C36.012 25.2169 40.6853 23.6182 45.5078 23.2719L44.9404 14.0918Z"/>
</mask>
<path d="M44.9404 14.0918C38.7441 14.5369 32.7397 16.5909 27.4394 20.0788C22.139 23.5667 17.7 28.3849 14.5011 34.1223C11.3022 39.8597 9.43826 46.3461 9.06836 53.0281C8.69846 59.71 9.83356 66.3893 12.3768 72.4961L20.1635 68.7281C18.1841 63.9752 17.3006 58.7767 17.5885 53.5761C17.8764 48.3755 19.3271 43.3271 21.8168 38.8616C24.3066 34.3962 27.7614 30.6462 31.8867 27.9316C36.012 25.2169 40.6853 23.6182 45.5078 23.2719L44.9404 14.0918Z" fill="#3B9EBF" stroke="#1A66C0" stroke-width="2" mask="url(#path-3-inside-2_0_1)"/>
<mask id="path-4-inside-3_0_1" fill="white">
<path d="M16.7468 80.4671C20.3513 85.6258 25.023 89.8066 30.3902 92.6767C35.7574 95.5468 41.672 97.027 47.6633 96.9996C53.6546 96.9722 59.5573 95.438 64.9017 92.5189C70.2462 89.5998 74.8848 85.3765 78.4486 80.185L71.5874 74.7124C68.8137 78.753 65.2034 82.04 61.0438 84.3119C56.8842 86.5839 52.2901 87.778 47.6271 87.7993C42.964 87.8206 38.3607 86.6685 34.1834 84.4347C30.0061 82.2009 26.3701 78.947 23.5647 74.932L16.7468 80.4671Z"/>
</mask>
<path d="M16.7468 80.4671C20.3513 85.6258 25.023 89.8066 30.3902 92.6767C35.7574 95.5468 41.672 97.027 47.6633 96.9996C53.6546 96.9722 59.5573 95.438 64.9017 92.5189C70.2462 89.5998 74.8848 85.3765 78.4486 80.185L71.5874 74.7124C68.8137 78.753 65.2034 82.04 61.0438 84.3119C56.8842 86.5839 52.2901 87.778 47.6271 87.7993C42.964 87.8206 38.3607 86.6685 34.1834 84.4347C30.0061 82.2009 26.3701 78.947 23.5647 74.932L16.7468 80.4671Z" fill="#3B9EBF" stroke="#1A66C0" stroke-width="2" mask="url(#path-4-inside-3_0_1)"/>
<path d="M159.12 71.28C159.707 73.1467 160.347 74.3467 161.04 74.88C161.787 75.4133 163.12 75.68 165.04 75.68V78H146.72V75.68H149.76C151.307 75.68 152.08 75.0133 152.08 73.68C152.08 73.1467 152 72.6133 151.84 72.08L146.8 58H129.04L124 72.32C123.787 73.0667 123.68 73.6 123.68 73.92C123.68 75.0933 124.427 75.68 125.92 75.68H128.8V78H114.56V75.68C115.947 75.68 117.013 75.5467 117.76 75.28C118.507 74.96 119.093 74.48 119.52 73.84C120 73.1467 120.48 72.1067 120.96 70.72L137.92 25.2H142.4L159.12 71.28ZM145.84 55.28L138 33.52H137.76L130.08 55.28H145.84ZM203.479 39.68C205.185 39.68 206.572 40.16 207.639 41.12C208.759 42.08 209.319 43.3067 209.319 44.8C209.319 45.92 209.025 46.8267 208.439 47.52C207.852 48.2133 207.052 48.56 206.039 48.56C205.079 48.56 204.305 48.2933 203.719 47.76C203.132 47.2267 202.839 46.5867 202.839 45.84C202.839 45.4667 202.892 45.0933 202.999 44.72C203.105 44.3467 203.159 44.0533 203.159 43.84C203.159 43.52 202.999 43.2267 202.679 42.96C202.359 42.6933 201.959 42.56 201.479 42.56C200.519 42.56 199.425 43.3867 198.199 45.04C199.639 47.0133 200.359 49.4133 200.359 52.24C200.359 56.5067 198.892 59.6533 195.959 61.68C193.079 63.6533 189.505 64.64 185.239 64.64C183.319 64.64 181.532 64.4533 179.879 64.08C177.319 65.4667 176.039 66.96 176.039 68.56C176.039 69.52 176.572 70.32 177.639 70.96C178.759 71.6 180.625 71.92 183.239 71.92H188.999C194.012 71.92 197.665 72.7733 199.959 74.48C202.305 76.1867 203.479 78.72 203.479 82.08C203.479 86.4 201.745 89.6267 198.279 91.76C194.812 93.8933 190.359 94.96 184.919 94.96C180.065 94.96 176.119 94.1333 173.079 92.48C170.092 90.8267 168.599 88.3467 168.599 85.04C168.599 83.2267 169.132 81.68 170.199 80.4C171.265 79.1733 173.025 78.08 175.479 77.12C173.879 76.5867 172.625 75.7867 171.719 74.72C170.812 73.6 170.359 72.3733 170.359 71.04C170.359 69.6 170.945 68.2133 172.119 66.88C173.292 65.5467 174.999 64.32 177.239 63.2C172.492 61.1733 170.119 57.5467 170.119 52.32C170.119 48.0533 171.612 44.88 174.599 42.8C177.639 40.72 181.239 39.68 185.399 39.68C187.639 39.68 189.745 40 191.719 40.64C193.692 41.2267 195.372 42.1333 196.759 43.36C198.625 40.9067 200.865 39.68 203.479 39.68ZM185.079 62.08C188.065 62.08 190.172 61.2267 191.399 59.52C192.679 57.8133 193.319 55.2533 193.319 51.84C193.319 48.8 192.705 46.4533 191.479 44.8C190.305 43.1467 188.305 42.32 185.479 42.32C182.599 42.32 180.545 43.2 179.319 44.96C178.092 46.6667 177.479 49.1467 177.479 52.4C177.479 55.44 178.039 57.8133 179.159 59.52C180.332 61.2267 182.305 62.08 185.079 62.08ZM179.719 77.76C177.959 78.4533 176.705 79.3867 175.959 80.56C175.265 81.7867 174.919 83.0667 174.919 84.4C174.919 86.8533 175.905 88.8 177.879 90.24C179.905 91.7333 182.572 92.48 185.879 92.48C189.345 92.48 192.145 91.7067 194.279 90.16C196.412 88.6667 197.479 86.5333 197.479 83.76C197.479 81.68 196.705 80.16 195.159 79.2C193.612 78.24 190.972 77.76 187.239 77.76H179.719ZM244.628 59.6H219.188C219.295 64.56 220.175 68.48 221.828 71.36C223.535 74.24 226.521 75.68 230.788 75.68C233.881 75.68 236.335 74.88 238.148 73.28C239.961 71.68 241.295 69.6267 242.148 67.12L244.388 68.08C243.268 71.3333 241.535 73.9467 239.188 75.92C236.841 77.8933 233.348 78.88 228.708 78.88C223.001 78.88 218.735 77.2267 215.908 73.92C213.135 70.6133 211.748 65.8667 211.748 59.68C211.748 53.3333 213.188 48.4267 216.068 44.96C218.948 41.44 223.188 39.68 228.788 39.68C239.348 39.68 244.628 46.08 244.628 58.88V59.6ZM237.188 57.04C237.188 51.9733 236.575 48.24 235.348 45.84C234.121 43.3867 231.961 42.16 228.868 42.16C225.721 42.16 223.375 43.4133 221.828 45.92C220.281 48.3733 219.401 52.08 219.188 57.04H237.188ZM287.097 71.36C287.097 72.6933 287.204 73.6533 287.417 74.24C287.63 74.7733 288.11 75.1467 288.857 75.36C289.604 75.5733 290.857 75.68 292.617 75.68V78H275.097V75.68C276.804 75.68 278.004 75.6 278.697 75.44C279.39 75.2267 279.844 74.8533 280.057 74.32C280.27 73.7867 280.377 72.8533 280.377 71.52V52.08C280.377 49.52 279.764 47.4667 278.537 45.92C277.364 44.32 275.497 43.52 272.937 43.52C270.857 43.52 269.097 44.0267 267.657 45.04C266.217 46 264.83 47.3867 263.497 49.2V71.52C263.497 72.8533 263.604 73.8133 263.817 74.4C264.03 74.9333 264.484 75.28 265.177 75.44C265.87 75.6 267.044 75.68 268.697 75.68V78H251.177V75.68C252.937 75.68 254.19 75.5733 254.937 75.36C255.684 75.1467 256.137 74.7733 256.297 74.24C256.51 73.7067 256.617 72.7467 256.617 71.36V47.52C256.617 46.1333 256.457 45.2267 256.137 44.8C255.817 44.32 255.204 44.08 254.297 44.08H251.577V41.68L261.017 40.08H263.257V46H263.337C265.15 43.8667 267.097 42.2933 269.177 41.28C271.257 40.2133 273.63 39.68 276.297 39.68C283.497 39.68 287.097 43.52 287.097 51.2V71.36ZM309.029 78.88C306.842 78.88 304.975 78.24 303.429 76.96C301.935 75.68 301.189 73.52 301.189 70.48V43.12H295.349V40.72C300.895 40.1333 304.335 36.0267 305.669 28.4H307.989V40.56H316.869V43.12H307.989V69.28C307.989 71.4667 308.309 73.04 308.949 74C309.642 74.9067 310.655 75.36 311.989 75.36C312.842 75.36 313.722 75.1733 314.629 74.8C315.535 74.3733 316.309 73.92 316.949 73.44L317.829 75.36C316.229 76.5333 314.815 77.4133 313.589 78C312.415 78.5867 310.895 78.88 309.029 78.88ZM323.328 54.16H341.408V59.52H323.328V54.16ZM349.789 62.64H351.869C352.456 66.3733 354.003 69.5733 356.509 72.24C359.016 74.9067 362.216 76.24 366.109 76.24C369.469 76.24 372.083 75.2533 373.949 73.28C375.869 71.3067 376.829 68.8267 376.829 65.84C376.829 63.3333 376.083 61.2533 374.589 59.6C373.096 57.9467 370.776 56.4267 367.629 55.04L363.949 53.52C359.523 51.6533 356.163 49.5733 353.869 47.28C351.576 44.9867 350.429 41.8933 350.429 38C350.429 33.52 351.949 30.1067 354.989 27.76C358.029 25.4133 361.923 24.24 366.669 24.24C369.709 24.24 372.403 24.8 374.749 25.92C375.709 26.2933 376.376 26.48 376.749 26.48C377.176 26.48 377.496 26.32 377.709 26C377.923 25.6267 378.109 25.12 378.269 24.48H380.029L380.829 38.64H378.749C378.216 35.12 376.963 32.2933 374.989 30.16C373.016 28.0267 370.296 26.96 366.829 26.96C364.003 26.96 361.736 27.7333 360.029 29.28C358.376 30.7733 357.549 33.0133 357.549 36C357.549 38.56 358.296 40.5867 359.789 42.08C361.283 43.5733 363.576 44.9867 366.669 46.32L370.509 47.92C373.336 49.1467 375.683 50.3733 377.549 51.6C379.469 52.8267 381.043 54.4533 382.269 56.48C383.496 58.4533 384.109 60.88 384.109 63.76C384.109 68.4533 382.483 72.16 379.229 74.88C376.029 77.6 371.683 78.96 366.189 78.96C364.163 78.96 362.483 78.8 361.149 78.48C359.816 78.2133 358.403 77.8133 356.909 77.28C355.949 76.8533 355.203 76.64 354.669 76.64C354.083 76.64 353.629 76.8267 353.309 77.2C353.043 77.5733 352.883 78.0533 352.829 78.64H350.829L349.789 62.64ZM414.468 39.68C419.268 39.68 422.895 41.2533 425.348 44.4C427.801 47.5467 429.028 52.2133 429.028 58.4C429.028 65.3333 427.535 70.5067 424.548 73.92C421.561 77.28 417.428 78.96 412.148 78.96C410.121 78.96 408.361 78.64 406.868 78C405.375 77.4133 403.961 76.5867 402.628 75.52V87.36C402.628 88.6933 402.735 89.6267 402.948 90.16C403.215 90.7467 403.748 91.1467 404.548 91.36C405.348 91.5733 406.681 91.68 408.548 91.68V94H390.388V91.68C392.201 91.68 393.455 91.5733 394.148 91.36C394.895 91.2 395.348 90.8267 395.508 90.24C395.721 89.7067 395.828 88.7467 395.828 87.36V47.2C395.828 45.92 395.641 45.0667 395.268 44.64C394.948 44.2133 394.228 44 393.108 44H390.708V41.68L400.228 40.08H402.388V44C403.775 42.8267 405.481 41.8133 407.508 40.96C409.535 40.1067 411.855 39.68 414.468 39.68ZM411.268 76.4C418.148 76.4 421.588 70.7467 421.588 59.44C421.588 54.16 420.788 50.1067 419.188 47.28C417.588 44.4 415.135 42.96 411.828 42.96C408.735 42.96 405.668 44.2933 402.628 46.96V72.32C405.135 75.04 408.015 76.4 411.268 76.4ZM470.445 76.72C469.432 77.36 468.392 77.8667 467.325 78.24C466.258 78.6133 464.872 78.8 463.165 78.8C461.565 78.8 460.338 78.48 459.485 77.84C458.685 77.2 458.205 75.8133 458.045 73.68C456.072 75.3867 454.152 76.6933 452.285 77.6C450.418 78.4533 448.338 78.88 446.045 78.88C443.112 78.88 440.712 78.2133 438.845 76.88C437.032 75.4933 436.125 73.4933 436.125 70.88C436.125 67.1467 438.018 63.8933 441.805 61.12C445.592 58.3467 451.005 56.4 458.045 55.28V50.64C458.045 47.92 457.485 45.8933 456.365 44.56C455.298 43.2267 453.432 42.56 450.765 42.56C448.898 42.56 447.218 42.9067 445.725 43.6C444.232 44.2933 443.485 44.9867 443.485 45.68C443.485 46.0533 443.725 46.4533 444.205 46.88C444.738 47.2533 445.138 47.6533 445.405 48.08C445.725 48.4533 445.885 49.04 445.885 49.84C445.885 50.96 445.565 51.8667 444.925 52.56C444.285 53.2 443.378 53.52 442.205 53.52C440.978 53.52 439.992 53.1467 439.245 52.4C438.552 51.6533 438.205 50.6133 438.205 49.28C438.205 47.6267 438.738 46.08 439.805 44.64C440.925 43.2 442.578 42.0267 444.765 41.12C447.005 40.2133 449.725 39.76 452.925 39.76C456.978 39.76 459.965 40.5867 461.885 42.24C463.805 43.8933 464.765 46.7733 464.765 50.88V69.84C464.765 71.92 464.978 73.36 465.405 74.16C465.885 74.9067 466.632 75.28 467.645 75.28C468.285 75.28 469.032 75.0933 469.885 74.72L470.445 76.72ZM443.325 68.96C443.325 70.8267 443.858 72.24 444.925 73.2C445.992 74.1067 447.538 74.56 449.565 74.56C451.058 74.56 452.472 74.24 453.805 73.6C455.192 72.96 456.605 72.1067 458.045 71.04V57.84C453.085 58.9067 449.378 60.3467 446.925 62.16C444.525 63.92 443.325 66.1867 443.325 68.96ZM492.624 78.88C487.024 78.88 482.73 77.1733 479.744 73.76C476.757 70.2933 475.264 65.5733 475.264 59.6C475.264 53.6267 476.757 48.8267 479.744 45.2C482.784 41.52 487.29 39.68 493.264 39.68C497.157 39.68 500.357 40.4533 502.864 42C505.37 43.5467 506.624 45.68 506.624 48.4C506.624 49.7867 506.277 50.88 505.584 51.68C504.89 52.48 503.877 52.88 502.544 52.88C501.21 52.88 500.197 52.5333 499.504 51.84C498.81 51.0933 498.464 50.1333 498.464 48.96C498.464 48.32 498.544 47.7867 498.704 47.36C498.917 46.9333 499.21 46.48 499.584 46C499.957 45.4667 500.144 45.0133 500.144 44.64C500.144 43.9467 499.584 43.36 498.464 42.88C497.397 42.4 496.01 42.16 494.304 42.16C490.677 42.16 487.85 43.4133 485.824 45.92C483.797 48.4267 482.784 52.6933 482.784 58.72C482.784 70.0267 486.624 75.68 494.304 75.68C499.424 75.68 503.05 73.3067 505.184 68.56L507.104 69.68C506.41 71.8667 504.944 73.9467 502.704 75.92C500.464 77.8933 497.104 78.88 492.624 78.88ZM546.816 59.6H521.376C521.482 64.56 522.362 68.48 524.016 71.36C525.722 74.24 528.709 75.68 532.976 75.68C536.069 75.68 538.522 74.88 540.336 73.28C542.149 71.68 543.482 69.6267 544.336 67.12L546.576 68.08C545.456 71.3333 543.722 73.9467 541.376 75.92C539.029 77.8933 535.536 78.88 530.896 78.88C525.189 78.88 520.922 77.2267 518.096 73.92C515.322 70.6133 513.936 65.8667 513.936 59.68C513.936 53.3333 515.376 48.4267 518.256 44.96C521.136 41.44 525.376 39.68 530.976 39.68C541.536 39.68 546.816 46.08 546.816 58.88V59.6ZM539.376 57.04C539.376 51.9733 538.762 48.24 537.536 45.84C536.309 43.3867 534.149 42.16 531.056 42.16C527.909 42.16 525.562 43.4133 524.016 45.92C522.469 48.3733 521.589 52.08 521.376 57.04H539.376Z" fill="#F1F1F1"/>
<path d="M48 29.5L23.3846 76H16L48 16L80 76H71.6308L48 29.5Z" fill="#3B9EBF" stroke="#1A66C0"/>
<path fill-rule="evenodd" clip-rule="evenodd" d="M48 2L4 79.7755L31.5 89.7602L47.5244 105L63.5 89.7602L91 79.7755L48 2ZM48 20.1765L19.7378 72.9634H75.8221L48 20.1765Z" fill="#EE673C"/>
<path d="M4 79.7755L3.56481 79.5293L3.27377 80.0438L3.82936 80.2455L4 79.7755ZM48 2L48.4376 1.75808L48.005 0.975691L47.5648 1.7538L48 2ZM31.5 89.7602L31.8446 89.3979L31.7689 89.3259L31.6706 89.2902L31.5 89.7602ZM47.5244 105L47.1798 105.362L47.5249 105.691L47.8695 105.362L47.5244 105ZM63.5 89.7602L63.3294 89.2902L63.2308 89.326L63.1549 89.3984L63.5 89.7602ZM91 79.7755L91.1706 80.2455L91.7207 80.0458L91.4376 79.5336L91 79.7755ZM19.7378 72.9634L19.297 72.7274L18.903 73.4634H19.7378V72.9634ZM48 20.1765L48.4423 19.9433L48.0035 19.1107L47.5592 19.9405L48 20.1765ZM75.8221 72.9634V73.4634H76.6509L76.2645 72.7303L75.8221 72.9634ZM4.43519 80.0217L48.4352 2.2462L47.5648 1.7538L3.56481 79.5293L4.43519 80.0217ZM31.6706 89.2902L4.17064 79.3055L3.82936 80.2455L31.3294 90.2302L31.6706 89.2902ZM47.869 104.638L31.8446 89.3979L31.1554 90.1225L47.1798 105.362L47.869 104.638ZM63.1549 89.3984L47.1793 104.638L47.8695 105.362L63.8451 90.122L63.1549 89.3984ZM90.8294 79.3055L63.3294 89.2902L63.6706 90.2302L91.1706 80.2455L90.8294 79.3055ZM47.5624 2.24192L90.5624 80.0174L91.4376 79.5336L48.4376 1.75808L47.5624 2.24192ZM20.1786 73.1994L48.4408 20.4125L47.5592 19.9405L19.297 72.7274L20.1786 73.1994ZM75.8221 72.4634H19.7378V73.4634H75.8221V72.4634ZM47.5577 20.4096L75.3798 73.1966L76.2645 72.7303L48.4423 19.9433L47.5577 20.4096Z" fill="#A42E14"/>
</svg>
