<svg width="551" height="108" viewBox="0 0 551 108" fill="none" xmlns="http://www.w3.org/2000/svg">
<path d="M159.12 70.28C159.707 72.1467 160.347 73.3467 161.04 73.88C161.787 74.4133 163.12 74.68 165.04 74.68V77H146.72V74.68H149.76C151.307 74.68 152.08 74.0133 152.08 72.68C152.08 72.1467 152 71.6133 151.84 71.08L146.8 57H129.04L124 71.32C123.787 72.0667 123.68 72.6 123.68 72.92C123.68 74.0933 124.427 74.68 125.92 74.68H128.8V77H114.56V74.68C115.947 74.68 117.013 74.5467 117.76 74.28C118.507 73.96 119.093 73.48 119.52 72.84C120 72.1467 120.48 71.1067 120.96 69.72L137.92 24.2H142.4L159.12 70.28ZM145.84 54.28L138 32.52H137.76L130.08 54.28H145.84ZM203.479 38.68C205.185 38.68 206.572 39.16 207.639 40.12C208.759 41.08 209.319 42.3067 209.319 43.8C209.319 44.92 209.025 45.8267 208.439 46.52C207.852 47.2133 207.052 47.56 206.039 47.56C205.079 47.56 204.305 47.2933 203.719 46.76C203.132 46.2267 202.839 45.5867 202.839 44.84C202.839 44.4667 202.892 44.0933 202.999 43.72C203.105 43.3467 203.159 43.0533 203.159 42.84C203.159 42.52 202.999 42.2267 202.679 41.96C202.359 41.6933 201.959 41.56 201.479 41.56C200.519 41.56 199.425 42.3867 198.199 44.04C199.639 46.0133 200.359 48.4133 200.359 51.24C200.359 55.5067 198.892 58.6533 195.959 60.68C193.079 62.6533 189.505 63.64 185.239 63.64C183.319 63.64 181.532 63.4533 179.879 63.08C177.319 64.4667 176.039 65.96 176.039 67.56C176.039 68.52 176.572 69.32 177.639 69.96C178.759 70.6 180.625 70.92 183.239 70.92H188.999C194.012 70.92 197.665 71.7733 199.959 73.48C202.305 75.1867 203.479 77.72 203.479 81.08C203.479 85.4 201.745 88.6267 198.279 90.76C194.812 92.8933 190.359 93.96 184.919 93.96C180.065 93.96 176.119 93.1333 173.079 91.48C170.092 89.8267 168.599 87.3467 168.599 84.04C168.599 82.2267 169.132 80.68 170.199 79.4C171.265 78.1733 173.025 77.08 175.479 76.12C173.879 75.5867 172.625 74.7867 171.719 73.72C170.812 72.6 170.359 71.3733 170.359 70.04C170.359 68.6 170.945 67.2133 172.119 65.88C173.292 64.5467 174.999 63.32 177.239 62.2C172.492 60.1733 170.119 56.5467 170.119 51.32C170.119 47.0533 171.612 43.88 174.599 41.8C177.639 39.72 181.239 38.68 185.399 38.68C187.639 38.68 189.745 39 191.719 39.64C193.692 40.2267 195.372 41.1333 196.759 42.36C198.625 39.9067 200.865 38.68 203.479 38.68ZM185.079 61.08C188.065 61.08 190.172 60.2267 191.399 58.52C192.679 56.8133 193.319 54.2533 193.319 50.84C193.319 47.8 192.705 45.4533 191.479 43.8C190.305 42.1467 188.305 41.32 185.479 41.32C182.599 41.32 180.545 42.2 179.319 43.96C178.092 45.6667 177.479 48.1467 177.479 51.4C177.479 54.44 178.039 56.8133 179.159 58.52C180.332 60.2267 182.305 61.08 185.079 61.08ZM179.719 76.76C177.959 77.4533 176.705 78.3867 175.959 79.56C175.265 80.7867 174.919 82.0667 174.919 83.4C174.919 85.8533 175.905 87.8 177.879 89.24C179.905 90.7333 182.572 91.48 185.879 91.48C189.345 91.48 192.145 90.7067 194.279 89.16C196.412 87.6667 197.479 85.5333 197.479 82.76C197.479 80.68 196.705 79.16 195.159 78.2C193.612 77.24 190.972 76.76 187.239 76.76H179.719ZM244.628 58.6H219.188C219.295 63.56 220.175 67.48 221.828 70.36C223.535 73.24 226.521 74.68 230.788 74.68C233.881 74.68 236.335 73.88 238.148 72.28C239.961 70.68 241.295 68.6267 242.148 66.12L244.388 67.08C243.268 70.3333 241.535 72.9467 239.188 74.92C236.841 76.8933 233.348 77.88 228.708 77.88C223.001 77.88 218.735 76.2267 215.908 72.92C213.135 69.6133 211.748 64.8667 211.748 58.68C211.748 52.3333 213.188 47.4267 216.068 43.96C218.948 40.44 223.188 38.68 228.788 38.68C239.348 38.68 244.628 45.08 244.628 57.88V58.6ZM237.188 56.04C237.188 50.9733 236.575 47.24 235.348 44.84C234.121 42.3867 231.961 41.16 228.868 41.16C225.721 41.16 223.375 42.4133 221.828 44.92C220.281 47.3733 219.401 51.08 219.188 56.04H237.188ZM287.097 70.36C287.097 71.6933 287.204 72.6533 287.417 73.24C287.63 73.7733 288.11 74.1467 288.857 74.36C289.604 74.5733 290.857 74.68 292.617 74.68V77H275.097V74.68C276.804 74.68 278.004 74.6 278.697 74.44C279.39 74.2267 279.844 73.8533 280.057 73.32C280.27 72.7867 280.377 71.8533 280.377 70.52V51.08C280.377 48.52 279.764 46.4667 278.537 44.92C277.364 43.32 275.497 42.52 272.937 42.52C270.857 42.52 269.097 43.0267 267.657 44.04C266.217 45 264.83 46.3867 263.497 48.2V70.52C263.497 71.8533 263.604 72.8133 263.817 73.4C264.03 73.9333 264.484 74.28 265.177 74.44C265.87 74.6 267.044 74.68 268.697 74.68V77H251.177V74.68C252.937 74.68 254.19 74.5733 254.937 74.36C255.684 74.1467 256.137 73.7733 256.297 73.24C256.51 72.7067 256.617 71.7467 256.617 70.36V46.52C256.617 45.1333 256.457 44.2267 256.137 43.8C255.817 43.32 255.204 43.08 254.297 43.08H251.577V40.68L261.017 39.08H263.257V45H263.337C265.15 42.8667 267.097 41.2933 269.177 40.28C271.257 39.2133 273.63 38.68 276.297 38.68C283.497 38.68 287.097 42.52 287.097 50.2V70.36ZM309.029 77.88C306.842 77.88 304.975 77.24 303.429 75.96C301.935 74.68 301.189 72.52 301.189 69.48V42.12H295.349V39.72C300.895 39.1333 304.335 35.0267 305.669 27.4H307.989V39.56H316.869V42.12H307.989V68.28C307.989 70.4667 308.309 72.04 308.949 73C309.642 73.9067 310.655 74.36 311.989 74.36C312.842 74.36 313.722 74.1733 314.629 73.8C315.535 73.3733 316.309 72.92 316.949 72.44L317.829 74.36C316.229 75.5333 314.815 76.4133 313.589 77C312.415 77.5867 310.895 77.88 309.029 77.88ZM323.328 53.16H341.408V58.52H323.328V53.16ZM349.789 61.64H351.869C352.456 65.3733 354.003 68.5733 356.509 71.24C359.016 73.9067 362.216 75.24 366.109 75.24C369.469 75.24 372.083 74.2533 373.949 72.28C375.869 70.3067 376.829 67.8267 376.829 64.84C376.829 62.3333 376.083 60.2533 374.589 58.6C373.096 56.9467 370.776 55.4267 367.629 54.04L363.949 52.52C359.523 50.6533 356.163 48.5733 353.869 46.28C351.576 43.9867 350.429 40.8933 350.429 37C350.429 32.52 351.949 29.1067 354.989 26.76C358.029 24.4133 361.923 23.24 366.669 23.24C369.709 23.24 372.403 23.8 374.749 24.92C375.709 25.2933 376.376 25.48 376.749 25.48C377.176 25.48 377.496 25.32 377.709 25C377.923 24.6267 378.109 24.12 378.269 23.48H380.029L380.829 37.64H378.749C378.216 34.12 376.963 31.2933 374.989 29.16C373.016 27.0267 370.296 25.96 366.829 25.96C364.003 25.96 361.736 26.7333 360.029 28.28C358.376 29.7733 357.549 32.0133 357.549 35C357.549 37.56 358.296 39.5867 359.789 41.08C361.283 42.5733 363.576 43.9867 366.669 45.32L370.509 46.92C373.336 48.1467 375.683 49.3733 377.549 50.6C379.469 51.8267 381.043 53.4533 382.269 55.48C383.496 57.4533 384.109 59.88 384.109 62.76C384.109 67.4533 382.483 71.16 379.229 73.88C376.029 76.6 371.683 77.96 366.189 77.96C364.163 77.96 362.483 77.8 361.149 77.48C359.816 77.2133 358.403 76.8133 356.909 76.28C355.949 75.8533 355.203 75.64 354.669 75.64C354.083 75.64 353.629 75.8267 353.309 76.2C353.043 76.5733 352.883 77.0533 352.829 77.64H350.829L349.789 61.64ZM414.468 38.68C419.268 38.68 422.895 40.2533 425.348 43.4C427.801 46.5467 429.028 51.2133 429.028 57.4C429.028 64.3333 427.535 69.5067 424.548 72.92C421.561 76.28 417.428 77.96 412.148 77.96C410.121 77.96 408.361 77.64 406.868 77C405.375 76.4133 403.961 75.5867 402.628 74.52V86.36C402.628 87.6933 402.735 88.6267 402.948 89.16C403.215 89.7467 403.748 90.1467 404.548 90.36C405.348 90.5733 406.681 90.68 408.548 90.68V93H390.388V90.68C392.201 90.68 393.455 90.5733 394.148 90.36C394.895 90.2 395.348 89.8267 395.508 89.24C395.721 88.7067 395.828 87.7467 395.828 86.36V46.2C395.828 44.92 395.641 44.0667 395.268 43.64C394.948 43.2133 394.228 43 393.108 43H390.708V40.68L400.228 39.08H402.388V43C403.775 41.8267 405.481 40.8133 407.508 39.96C409.535 39.1067 411.855 38.68 414.468 38.68ZM411.268 75.4C418.148 75.4 421.588 69.7467 421.588 58.44C421.588 53.16 420.788 49.1067 419.188 46.28C417.588 43.4 415.135 41.96 411.828 41.96C408.735 41.96 405.668 43.2933 402.628 45.96V71.32C405.135 74.04 408.015 75.4 411.268 75.4ZM470.445 75.72C469.432 76.36 468.392 76.8667 467.325 77.24C466.258 77.6133 464.872 77.8 463.165 77.8C461.565 77.8 460.338 77.48 459.485 76.84C458.685 76.2 458.205 74.8133 458.045 72.68C456.072 74.3867 454.152 75.6933 452.285 76.6C450.418 77.4533 448.338 77.88 446.045 77.88C443.112 77.88 440.712 77.2133 438.845 75.88C437.032 74.4933 436.125 72.4933 436.125 69.88C436.125 66.1467 438.018 62.8933 441.805 60.12C445.592 57.3467 451.005 55.4 458.045 54.28V49.64C458.045 46.92 457.485 44.8933 456.365 43.56C455.298 42.2267 453.432 41.56 450.765 41.56C448.898 41.56 447.218 41.9067 445.725 42.6C444.232 43.2933 443.485 43.9867 443.485 44.68C443.485 45.0533 443.725 45.4533 444.205 45.88C444.738 46.2533 445.138 46.6533 445.405 47.08C445.725 47.4533 445.885 48.04 445.885 48.84C445.885 49.96 445.565 50.8667 444.925 51.56C444.285 52.2 443.378 52.52 442.205 52.52C440.978 52.52 439.992 52.1467 439.245 51.4C438.552 50.6533 438.205 49.6133 438.205 48.28C438.205 46.6267 438.738 45.08 439.805 43.64C440.925 42.2 442.578 41.0267 444.765 40.12C447.005 39.2133 449.725 38.76 452.925 38.76C456.978 38.76 459.965 39.5867 461.885 41.24C463.805 42.8933 464.765 45.7733 464.765 49.88V68.84C464.765 70.92 464.978 72.36 465.405 73.16C465.885 73.9067 466.632 74.28 467.645 74.28C468.285 74.28 469.032 74.0933 469.885 73.72L470.445 75.72ZM443.325 67.96C443.325 69.8267 443.858 71.24 444.925 72.2C445.992 73.1067 447.538 73.56 449.565 73.56C451.058 73.56 452.472 73.24 453.805 72.6C455.192 71.96 456.605 71.1067 458.045 70.04V56.84C453.085 57.9067 449.378 59.3467 446.925 61.16C444.525 62.92 443.325 65.1867 443.325 67.96ZM492.624 77.88C487.024 77.88 482.73 76.1733 479.744 72.76C476.757 69.2933 475.264 64.5733 475.264 58.6C475.264 52.6267 476.757 47.8267 479.744 44.2C482.784 40.52 487.29 38.68 493.264 38.68C497.157 38.68 500.357 39.4533 502.864 41C505.37 42.5467 506.624 44.68 506.624 47.4C506.624 48.7867 506.277 49.88 505.584 50.68C504.89 51.48 503.877 51.88 502.544 51.88C501.21 51.88 500.197 51.5333 499.504 50.84C498.81 50.0933 498.464 49.1333 498.464 47.96C498.464 47.32 498.544 46.7867 498.704 46.36C498.917 45.9333 499.21 45.48 499.584 45C499.957 44.4667 500.144 44.0133 500.144 43.64C500.144 42.9467 499.584 42.36 498.464 41.88C497.397 41.4 496.01 41.16 494.304 41.16C490.677 41.16 487.85 42.4133 485.824 44.92C483.797 47.4267 482.784 51.6933 482.784 57.72C482.784 69.0267 486.624 74.68 494.304 74.68C499.424 74.68 503.05 72.3067 505.184 67.56L507.104 68.68C506.41 70.8667 504.944 72.9467 502.704 74.92C500.464 76.8933 497.104 77.88 492.624 77.88ZM546.816 58.6H521.376C521.482 63.56 522.362 67.48 524.016 70.36C525.722 73.24 528.709 74.68 532.976 74.68C536.069 74.68 538.522 73.88 540.336 72.28C542.149 70.68 543.482 68.6267 544.336 66.12L546.576 67.08C545.456 70.3333 543.722 72.9467 541.376 74.92C539.029 76.8933 535.536 77.88 530.896 77.88C525.189 77.88 520.922 76.2267 518.096 72.92C515.322 69.6133 513.936 64.8667 513.936 58.68C513.936 52.3333 515.376 47.4267 518.256 43.96C521.136 40.44 525.376 38.68 530.976 38.68C541.536 38.68 546.816 45.08 546.816 57.88V58.6ZM539.376 56.04C539.376 50.9733 538.762 47.24 537.536 44.84C536.309 42.3867 534.149 41.16 531.056 41.16C527.909 41.16 525.562 42.4133 524.016 44.92C522.469 47.3733 521.589 51.08 521.376 56.04H539.376Z" fill="#001D82"/>
<circle cx="47.5" cy="54.5" r="47.5" fill="#001D82"/>
<mask id="path-3-inside-1_10_69" fill="white">
<path d="M86 54.5C86 76.3152 68.763 94 47.5 94C26.237 94 9 76.3152 9 54.5C9 32.6848 26.237 15 47.5 15C68.763 15 86 32.6848 86 54.5ZM16.1088 54.5C16.1088 72.2872 30.1631 86.7065 47.5 86.7065C64.8369 86.7065 78.8912 72.2872 78.8912 54.5C78.8912 36.7128 64.8369 22.2935 47.5 22.2935C30.1631 22.2935 16.1088 36.7128 16.1088 54.5Z"/>
</mask>
<path d="M86 54.5C86 76.3152 68.763 94 47.5 94C26.237 94 9 76.3152 9 54.5C9 32.6848 26.237 15 47.5 15C68.763 15 86 32.6848 86 54.5ZM16.1088 54.5C16.1088 72.2872 30.1631 86.7065 47.5 86.7065C64.8369 86.7065 78.8912 72.2872 78.8912 54.5C78.8912 36.7128 64.8369 22.2935 47.5 22.2935C30.1631 22.2935 16.1088 36.7128 16.1088 54.5Z" fill="#3B9EBF" stroke="#1A66C0" stroke-width="2" mask="url(#path-3-inside-1_10_69)"/>
<path d="M47.5 31.05L21.7308 76H14L47.5 18L81 76H72.2385L47.5 31.05Z" fill="#3B9EBF" stroke="#1A66C0"/>
<path fill-rule="evenodd" clip-rule="evenodd" d="M48.023 1L2 75.6082L30.7644 85.1863L48.023 107L64.2356 85.1863L93 75.6082L48.023 1ZM48.023 18.4362L18.4614 69.0735H77.1243L48.023 18.4362Z" fill="#EE673C"/>
<path d="M2 75.6082L1.57445 75.3457L1.24294 75.8831L1.84204 76.0826L2 75.6082ZM48.023 1L48.4512 0.741858L48.0279 0.0396818L47.5974 0.737495L48.023 1ZM30.7644 85.1863L31.1565 84.876L31.0639 84.759L30.9223 84.7119L30.7644 85.1863ZM48.023 107L47.6309 107.31L48.0354 107.822L48.4243 107.298L48.023 107ZM64.2356 85.1863L64.0777 84.7119L63.9283 84.7616L63.8343 84.888L64.2356 85.1863ZM93 75.6082L93.158 76.0826L93.7508 75.8852L93.4282 75.35L93 75.6082ZM18.4614 69.0735L18.0296 68.8214L17.5905 69.5735H18.4614V69.0735ZM48.023 18.4362L48.4565 18.1871L48.0264 17.4387L47.5912 18.1841L48.023 18.4362ZM77.1243 69.0735V69.5735H77.9883L77.5578 68.8243L77.1243 69.0735ZM2.42555 75.8707L48.4485 1.2625L47.5974 0.737495L1.57445 75.3457L2.42555 75.8707ZM30.9223 84.7119L2.15796 75.1338L1.84204 76.0826L30.6064 85.6606L30.9223 84.7119ZM48.4151 106.69L31.1565 84.876L30.3723 85.4965L47.6309 107.31L48.4151 106.69ZM63.8343 84.888L47.6217 106.702L48.4243 107.298L64.6369 85.4845L63.8343 84.888ZM92.842 75.1338L64.0777 84.7119L64.3936 85.6606L93.158 76.0826L92.842 75.1338ZM47.5948 1.25814L92.5718 75.8663L93.4282 75.35L48.4512 0.741858L47.5948 1.25814ZM18.8932 69.3256L48.4548 18.6883L47.5912 18.1841L18.0296 68.8214L18.8932 69.3256ZM77.1243 68.5735H18.4614V69.5735H77.1243V68.5735ZM47.5895 18.6854L76.6908 69.3226L77.5578 68.8243L48.4565 18.1871L47.5895 18.6854Z" fill="#A42E14"/>
</svg>
