<svg width="121" height="111" viewBox="0 0 121 111" fill="none" xmlns="http://www.w3.org/2000/svg">
<path d="M60.44 28.32L42.92 82.08V82C42.6 82.8 42.1467 83.4667 41.56 84C41.0267 84.48 40.36 84.72 39.56 84.72C39.1333 84.72 38.7067 84.6667 38.28 84.56C37.9067 84.5067 37.5067 84.4267 37.08 84.32H37.16C34.12 83.36 33 81.6533 33.8 79.2L52.04 23.76C52.3067 22.9067 52.76 22.1867 53.4 21.6C54.0933 21.0133 54.8933 20.6667 55.8 20.56C56.7067 20.4 57.5867 20.2933 58.44 20.24C59.2933 20.1333 59.96 20.08 60.44 20.08C60.92 20.08 61.5867 20.1333 62.44 20.24C63.2933 20.2933 64.1733 20.3733 65.08 20.48C65.8267 20.5867 66.5467 20.9867 67.24 21.68C67.9867 22.3733 68.5467 23.0667 68.92 23.76C71.9067 32.9333 74.92 42.1867 77.96 51.52C81.0533 60.8 84.0933 70.0267 87.08 79.2C87.8267 81.6533 86.7067 83.36 83.72 84.32C83.2933 84.4267 82.8933 84.5067 82.52 84.56C82.2 84.6667 81.8267 84.72 81.4 84.72C80.6533 84.72 79.96 84.48 79.32 84C78.7333 83.4667 78.3067 82.8 78.04 82V82.08L60.44 28.32ZM66.44 64.8C66.44 66.5067 65.8267 67.9733 64.6 69.2C63.4267 70.3733 61.9867 70.96 60.28 70.96C58.5733 70.96 57.1333 70.3733 55.96 69.2C54.7867 67.9733 54.2 66.5067 54.2 64.8C54.2 63.0933 54.7867 61.6533 55.96 60.48C57.1333 59.2533 58.5733 58.64 60.28 58.64C61.9867 58.64 63.4267 59.2533 64.6 60.48C65.8267 61.6533 66.44 63.0933 66.44 64.8Z" fill="white"/>
<path d="M31.125 11.6719C29.9062 12.4219 28.7656 13.2656 27.7031 14.2031C26.6719 15.1406 25.7812 16.1719 25.0312 17.2969C24.2812 18.4219 23.6875 19.6406 23.25 20.9531C22.8125 22.2344 22.5938 23.6094 22.5938 25.0781C22.5938 26.2656 22.6406 27.3125 22.7344 28.2188C22.8281 29.0938 22.9375 29.9219 23.0625 30.7031C23.2188 31.4844 23.375 32.2188 23.5312 32.9062C23.7188 33.5938 23.875 34.3281 24 35.1094C24.1562 35.8906 24.2812 36.7344 24.375 37.6406C24.4688 38.5469 24.5156 39.5781 24.5156 40.7344C24.5156 42.0469 24.3125 43.3438 23.9062 44.625C23.5 45.875 22.9062 47.0625 22.125 48.1875C21.375 49.2812 20.4688 50.2812 19.4062 51.1875C18.3438 52.0938 17.1562 52.8281 15.8438 53.3906C18.9688 53.9531 21.1875 55.3281 22.5 57.5156C23.8438 59.7031 24.5156 62.5156 24.5156 65.9531C24.5156 67.7656 24.4062 69.3594 24.1875 70.7344C24 72.0781 23.7812 73.3594 23.5312 74.5781C23.3125 75.7656 23.0938 76.9688 22.875 78.1875C22.6875 79.375 22.5938 80.7188 22.5938 82.2188C22.5938 83.8125 22.7031 85.2188 22.9219 86.4375C23.1406 87.6562 23.5469 88.7812 24.1406 89.8125C24.7344 90.8438 25.5469 91.8125 26.5781 92.7188C27.6406 93.625 29 94.5312 30.6562 95.4375L29.3438 98.7656C26.625 97.7031 24.2656 96.5938 22.2656 95.4375C20.2656 94.3125 18.6094 93.0469 17.2969 91.6406C15.9844 90.2344 15 88.6406 14.3438 86.8594C13.7188 85.1094 13.4062 83.1094 13.4062 80.8594C13.4062 79.0781 13.5 77.5625 13.6875 76.3125C13.9062 75.0625 14.125 73.8594 14.3438 72.7031C14.5938 71.5469 14.8125 70.3125 15 69C15.2188 67.6875 15.3281 66.0938 15.3281 64.2188C15.3281 61.6875 14.7188 59.8125 13.5 58.5938C12.3125 57.375 10.6094 56.7656 8.39062 56.7656H7.40625C7.21875 56.7656 7.04688 56.7812 6.89062 56.8125C6.73438 56.8125 6.54688 56.8438 6.32812 56.9062C6.14062 56.9375 5.8125 56.9844 5.34375 57.0469L4.54688 54.0938C8.14062 53.125 10.8281 51.7188 12.6094 49.875C14.4219 48 15.3281 45.8906 15.3281 43.5469C15.3281 42.3281 15.2812 41.2656 15.1875 40.3594C15.0938 39.4219 14.9688 38.5781 14.8125 37.8281C14.6875 37.0781 14.5312 36.375 14.3438 35.7188C14.1875 35.0312 14.0312 34.3125 13.875 33.5625C13.75 32.7812 13.6406 31.9375 13.5469 31.0312C13.4531 30.0938 13.4062 29 13.4062 27.75C13.4062 25.6562 13.7969 23.7031 14.5781 21.8906C15.3594 20.0469 16.4688 18.3594 17.9062 16.8281C19.3438 15.2656 21.0469 13.8437 23.0156 12.5625C25.0156 11.25 27.2344 10.0625 29.6719 9L31.125 11.6719Z" fill="#42ABD1"/>
<path d="M116.266 53.7188C112.609 54.6875 109.891 56.0938 108.109 57.9375C106.328 59.75 105.438 61.8438 105.438 64.2188C105.438 65.4375 105.484 66.5 105.578 67.4062C105.672 68.3125 105.781 69.1562 105.906 69.9375C106.062 70.6875 106.219 71.4062 106.375 72.0938C106.531 72.75 106.672 73.4531 106.797 74.2031C106.953 74.9531 107.078 75.7969 107.172 76.7344C107.266 77.6406 107.312 78.7188 107.312 79.9688C107.312 82.0938 106.922 84.0625 106.141 85.875C105.359 87.6875 104.25 89.375 102.812 90.9375C101.406 92.5 99.7031 93.9219 97.7031 95.2031C95.7031 96.5156 93.5 97.7031 91.0938 98.7656L89.5938 96.0469C90.8125 95.2969 91.9375 94.4531 92.9688 93.5156C94.0312 92.5781 94.9375 91.5469 95.6875 90.4219C96.4375 89.2969 97.0312 88.0781 97.4688 86.7656C97.9062 85.4844 98.125 84.1094 98.125 82.6406C98.125 80.8906 98.0156 79.4219 97.7969 78.2344C97.6094 77.0469 97.3906 75.9219 97.1406 74.8594C96.9219 73.7656 96.7188 72.625 96.5312 71.4375C96.3438 70.2188 96.25 68.7188 96.25 66.9375C96.25 65.6562 96.4531 64.3906 96.8594 63.1406C97.2656 61.8906 97.8438 60.7188 98.5938 59.625C99.3438 58.5 100.25 57.5 101.312 56.625C102.406 55.7188 103.625 54.9844 104.969 54.4219C101.812 53.8281 99.5625 52.4375 98.2188 50.25C96.9062 48.0625 96.25 45.2344 96.25 41.7656C96.25 39.9531 96.3438 38.375 96.5312 37.0312C96.7188 35.6562 96.9219 34.375 97.1406 33.1875C97.3906 31.9688 97.6094 30.7656 97.7969 29.5781C98.0156 28.3906 98.125 27.0469 98.125 25.5469C98.125 23.9531 98.0156 22.5313 97.7969 21.2812C97.5781 20.0312 97.1562 18.9062 96.5312 17.9062C95.9375 16.875 95.1094 15.9219 94.0469 15.0469C93.0156 14.1406 91.6875 13.2344 90.0625 12.3281L91.375 9C94.0938 10.0312 96.4531 11.125 98.4531 12.2812C100.453 13.4375 102.109 14.7188 103.422 16.125C104.734 17.5312 105.703 19.1094 106.328 20.8594C106.984 22.6094 107.312 24.6094 107.312 26.8594C107.312 28.6406 107.203 30.1562 106.984 31.4062C106.797 32.6562 106.578 33.875 106.328 35.0625C106.109 36.2188 105.906 37.4531 105.719 38.7656C105.531 40.0469 105.438 41.625 105.438 43.5C105.438 46.0312 106.031 47.9062 107.219 49.125C108.438 50.3438 110.172 50.9531 112.422 50.9531H113.828C113.984 50.9531 114.172 50.9375 114.391 50.9062L115.469 50.6719L116.266 53.7188Z" fill="#9F70FD"/>
</svg>
