<svg width="95" height="108" viewBox="0 0 95 108" fill="none" xmlns="http://www.w3.org/2000/svg">
<circle cx="47.5" cy="54.5" r="47.5" fill="#F1F1F1"/>
<mask id="path-2-inside-1_10_56" fill="white">
<path d="M86 54.5C86 76.3152 68.763 94 47.5 94C26.237 94 9 76.3152 9 54.5C9 32.6848 26.237 15 47.5 15C68.763 15 86 32.6848 86 54.5ZM16.1088 54.5C16.1088 72.2872 30.1631 86.7065 47.5 86.7065C64.8369 86.7065 78.8912 72.2872 78.8912 54.5C78.8912 36.7128 64.8369 22.2935 47.5 22.2935C30.1631 22.2935 16.1088 36.7128 16.1088 54.5Z"/>
</mask>
<path d="M86 54.5C86 76.3152 68.763 94 47.5 94C26.237 94 9 76.3152 9 54.5C9 32.6848 26.237 15 47.5 15C68.763 15 86 32.6848 86 54.5ZM16.1088 54.5C16.1088 72.2872 30.1631 86.7065 47.5 86.7065C64.8369 86.7065 78.8912 72.2872 78.8912 54.5C78.8912 36.7128 64.8369 22.2935 47.5 22.2935C30.1631 22.2935 16.1088 36.7128 16.1088 54.5Z" fill="#3B9EBF" stroke="#1A66C0" stroke-width="2" mask="url(#path-2-inside-1_10_56)"/>
<path d="M47.5 31.05L21.7308 76H14L47.5 18L81 76H72.2385L47.5 31.05Z" fill="#3B9EBF" stroke="#1A66C0"/>
<path fill-rule="evenodd" clip-rule="evenodd" d="M48.023 1L2 75.6082L30.7644 85.1863L48.023 107L64.2356 85.1863L93 75.6082L48.023 1ZM48.023 18.4362L18.4614 69.0735H77.1243L48.023 18.4362Z" fill="#EE673C"/>
<path d="M2 75.6082L1.57445 75.3457L1.24294 75.8831L1.84204 76.0826L2 75.6082ZM48.023 1L48.4512 0.741858L48.0279 0.0396818L47.5974 0.737495L48.023 1ZM30.7644 85.1863L31.1565 84.876L31.0639 84.759L30.9223 84.7119L30.7644 85.1863ZM48.023 107L47.6309 107.31L48.0354 107.822L48.4243 107.298L48.023 107ZM64.2356 85.1863L64.0777 84.7119L63.9283 84.7616L63.8343 84.888L64.2356 85.1863ZM93 75.6082L93.158 76.0826L93.7508 75.8852L93.4282 75.35L93 75.6082ZM18.4614 69.0735L18.0296 68.8214L17.5905 69.5735H18.4614V69.0735ZM48.023 18.4362L48.4565 18.1871L48.0264 17.4387L47.5912 18.1841L48.023 18.4362ZM77.1243 69.0735V69.5735H77.9883L77.5578 68.8243L77.1243 69.0735ZM2.42555 75.8707L48.4485 1.2625L47.5974 0.737495L1.57445 75.3457L2.42555 75.8707ZM30.9223 84.7119L2.15796 75.1338L1.84204 76.0826L30.6064 85.6606L30.9223 84.7119ZM48.4151 106.69L31.1565 84.876L30.3723 85.4965L47.6309 107.31L48.4151 106.69ZM63.8343 84.888L47.6217 106.702L48.4243 107.298L64.6369 85.4845L63.8343 84.888ZM92.842 75.1338L64.0777 84.7119L64.3936 85.6606L93.158 76.0826L92.842 75.1338ZM47.5948 1.25814L92.5718 75.8663L93.4282 75.35L48.4512 0.741858L47.5948 1.25814ZM18.8932 69.3256L48.4548 18.6883L47.5912 18.1841L18.0296 68.8214L18.8932 69.3256ZM77.1243 68.5735H18.4614V69.5735H77.1243V68.5735ZM47.5895 18.6854L76.6908 69.3226L77.5578 68.8243L48.4565 18.1871L47.5895 18.6854Z" fill="#A42E14"/>
</svg>
